<svg width="223" height="47" viewBox="0 0 223 47" fill="none" xmlns="http://www.w3.org/2000/svg">
<path d="M11.194 29.027C11.426 28.969 11.658 28.9303 11.89 28.911C12.1413 28.8917 12.3637 28.9207 12.557 28.998C12.7697 29.0753 12.9437 29.2107 13.079 29.404C13.2143 29.578 13.282 29.8293 13.282 30.158C13.282 30.39 13.224 30.6123 13.108 30.825C12.992 31.0377 12.847 31.231 12.673 31.405C12.499 31.579 12.3057 31.7337 12.093 31.869C11.8803 31.985 11.6773 32.0817 11.484 32.159C10.9233 32.4103 10.2757 32.6037 9.541 32.739C8.82567 32.8743 8.08133 32.9227 7.308 32.884C6.264 32.8453 5.25867 32.6423 4.292 32.275C3.34467 31.8883 2.60033 31.26 2.059 30.39C1.55633 29.5393 1.25667 28.592 1.16 27.548C1.06333 26.504 1.11167 25.518 1.305 24.59C1.51767 23.4687 1.87533 22.56 2.378 21.864C2.9 21.1487 3.51867 20.5783 4.234 20.153C5.104 19.6503 6.08033 19.3893 7.163 19.37C8.24567 19.3507 9.28 19.5633 10.266 20.008C10.9233 20.298 11.513 20.6943 12.035 21.197C12.557 21.6803 12.9533 22.27 13.224 22.966C13.3013 23.14 13.3593 23.3527 13.398 23.604C13.456 23.8553 13.4947 24.126 13.514 24.416C13.5333 24.6867 13.5333 24.9573 13.514 25.228C13.4947 25.4987 13.4463 25.7403 13.369 25.953C13.253 26.301 13.108 26.5717 12.934 26.765C12.76 26.9583 12.5377 27.1033 12.267 27.2C11.9963 27.2967 11.6677 27.3643 11.281 27.403C10.9137 27.4223 10.469 27.4417 9.947 27.461C9.483 27.4803 9.048 27.49 8.642 27.49C8.236 27.49 7.82033 27.49 7.395 27.49C6.96967 27.4707 6.525 27.461 6.061 27.461C5.61633 27.4417 5.11367 27.4223 4.553 27.403C4.495 27.7897 4.54333 28.128 4.698 28.418C4.872 28.6887 5.104 28.9207 5.394 29.114C5.684 29.288 6.01267 29.4233 6.38 29.52C6.74733 29.6167 7.105 29.6747 7.453 29.694C8.11033 29.7327 8.73867 29.6843 9.338 29.549C9.93733 29.3943 10.556 29.2203 11.194 29.027ZM9.947 23.401C9.57967 22.9757 9.193 22.6663 8.787 22.473C8.47767 22.3377 8.149 22.2797 7.801 22.299C7.47233 22.299 7.15333 22.3473 6.844 22.444C6.28333 22.5793 5.80967 22.8693 5.423 23.314C5.38433 23.3527 5.31667 23.4493 5.22 23.604C5.12333 23.7393 5.02667 23.8843 4.93 24.039C4.85267 24.1937 4.79467 24.3387 4.756 24.474C4.71733 24.6093 4.73667 24.677 4.814 24.677H10.498C10.4787 24.4063 10.4303 24.184 10.353 24.01C10.2757 23.8167 10.1403 23.6137 9.947 23.401ZM18.968 20.791C19.548 20.501 20.157 20.298 20.795 20.182C21.433 20.0467 22.0614 20.0177 22.68 20.095C23.318 20.153 23.927 20.3173 24.507 20.588C25.087 20.8393 25.6284 21.2067 26.131 21.69C26.6337 22.1927 27.0204 22.7437 27.291 23.343C27.5617 23.9423 27.755 24.6093 27.871 25.344C27.9484 25.8467 28.074 26.3107 28.248 26.736C28.422 27.1613 28.6057 27.5867 28.799 28.012C29.0117 28.4373 29.205 28.8627 29.379 29.288C29.5724 29.7133 29.727 30.158 29.843 30.622C29.9397 31.0667 29.901 31.5017 29.727 31.927C29.5724 32.333 29.2437 32.5843 28.741 32.681C28.451 32.739 28.1707 32.7197 27.9 32.623C27.6487 32.507 27.4167 32.3523 27.204 32.159C26.9914 31.9463 26.798 31.724 26.624 31.492C26.4694 31.2407 26.3244 31.0087 26.189 30.796C25.7444 31.376 25.261 31.8303 24.739 32.159C24.217 32.4683 23.5887 32.6713 22.854 32.768C22.2354 32.8453 21.6457 32.8647 21.085 32.826C20.5244 32.7873 19.925 32.681 19.287 32.507C18.4557 32.2943 17.7694 31.927 17.228 31.405C16.706 30.8637 16.3 30.245 16.01 29.549C15.7394 28.8337 15.5944 28.07 15.575 27.258C15.5557 26.446 15.6524 25.6437 15.865 24.851C16.1357 23.807 16.5417 22.9563 17.083 22.299C17.6244 21.6417 18.2527 21.139 18.968 20.791ZM19.693 24.184C19.4224 24.4547 19.2097 24.7737 19.055 25.141C18.9004 25.5083 18.8037 25.895 18.765 26.301C18.7457 26.707 18.7844 27.113 18.881 27.519C18.9777 27.925 19.1324 28.2827 19.345 28.592C19.5384 28.8627 19.867 29.0947 20.331 29.288C20.795 29.462 21.2784 29.5683 21.781 29.607C22.361 29.6457 22.8637 29.491 23.289 29.143C23.7337 28.795 24.0624 28.36 24.275 27.838C24.507 27.2967 24.6134 26.7263 24.594 26.127C24.5747 25.5083 24.4104 24.9477 24.101 24.445C23.869 24.0777 23.5597 23.807 23.173 23.633C22.8057 23.459 22.4094 23.372 21.984 23.372C21.5587 23.3527 21.1334 23.4203 20.708 23.575C20.302 23.7103 19.9637 23.9133 19.693 24.184ZM41.2119 20.211C41.3666 20.5783 41.3763 20.9843 41.2409 21.429C41.1249 21.8737 40.9026 22.1637 40.5739 22.299C40.3999 22.3763 40.1679 22.444 39.8779 22.502C39.5879 22.5407 39.2689 22.5793 38.9209 22.618C38.5923 22.6567 38.2636 22.6857 37.9349 22.705C37.6063 22.7243 37.3259 22.734 37.0939 22.734C37.1133 23.314 37.1326 23.9133 37.1519 24.532C37.1713 25.1313 37.1906 25.721 37.2099 26.301C37.2293 26.881 37.2389 27.4417 37.2389 27.983C37.2389 28.505 37.2293 28.9787 37.2099 29.404C37.2099 29.694 37.2099 30.0323 37.2099 30.419C37.2099 30.7863 37.1809 31.144 37.1229 31.492C37.0843 31.84 37.0166 32.1493 36.9199 32.42C36.8233 32.6713 36.6783 32.8357 36.4849 32.913C35.8856 33.1643 35.3346 33.232 34.8319 33.116C34.3486 33.0193 34.0006 32.8163 33.7879 32.507C33.6333 32.2557 33.5173 31.9657 33.4399 31.637C33.3626 31.289 33.3046 30.941 33.2659 30.593C33.2466 30.2257 33.2369 29.8777 33.2369 29.549C33.2563 29.201 33.2659 28.9013 33.2659 28.65C33.2853 27.838 33.2949 26.9197 33.2949 25.895C33.3143 24.851 33.3239 23.807 33.3239 22.763H32.8889C32.6569 22.763 32.3573 22.763 31.9899 22.763C31.6419 22.7437 31.2843 22.7147 30.9169 22.676C30.5689 22.618 30.2403 22.5503 29.9309 22.473C29.6216 22.3763 29.3993 22.241 29.2639 22.067C29.0513 21.8157 28.9159 21.545 28.8579 21.255C28.8193 20.965 28.8386 20.6943 28.9159 20.443C29.0126 20.1723 29.1576 19.9403 29.3509 19.747C29.5443 19.5343 29.7666 19.399 30.0179 19.341C30.3659 19.2443 30.8589 19.196 31.4969 19.196C32.1349 19.1767 32.7343 19.1767 33.2949 19.196C33.2756 19.0027 33.2659 18.819 33.2659 18.645C33.2659 18.4517 33.2563 18.268 33.2369 18.094C33.2176 17.862 33.2079 17.572 33.2079 17.224C33.2079 16.8567 33.2273 16.499 33.2659 16.151C33.3239 15.7837 33.4109 15.4453 33.5269 15.136C33.6429 14.8073 33.8073 14.556 34.0199 14.382C34.3099 14.15 34.5999 14.0243 34.8899 14.005C35.1993 13.9663 35.4796 14.005 35.7309 14.121C36.0016 14.237 36.2239 14.411 36.3979 14.643C36.5913 14.8557 36.7266 15.0973 36.8039 15.368C36.8619 15.6 36.9103 15.8803 36.9489 16.209C36.9876 16.5183 37.0069 16.847 37.0069 17.195C37.0263 17.543 37.0359 17.891 37.0359 18.239C37.0359 18.587 37.0359 18.906 37.0359 19.196H37.3259C37.6159 19.196 37.9543 19.1863 38.3409 19.167C38.7276 19.1477 39.1046 19.1573 39.4719 19.196C39.8586 19.2347 40.2066 19.3313 40.5159 19.486C40.8253 19.6213 41.0573 19.863 41.2119 20.211ZM61.3298 30.912C61.3105 31.144 61.2815 31.3857 61.2428 31.637C61.2041 31.8883 61.1365 32.1203 61.0398 32.333C60.9431 32.565 60.8175 32.739 60.6628 32.855C60.4501 33.0483 60.1988 33.1547 59.9088 33.174C59.6381 33.2707 59.3771 33.2997 59.1258 33.261C58.8745 33.2223 58.6425 33.1547 58.4298 33.058C58.1591 32.884 57.9561 32.681 57.8208 32.449C57.7048 32.1977 57.6178 31.9367 57.5598 31.666C57.5018 31.3953 57.4728 31.115 57.4728 30.825C57.4728 30.535 57.4728 30.2643 57.4728 30.013V27.751L57.4438 23.314C57.4438 23.0047 57.4438 22.763 57.4438 22.589C57.4438 22.415 57.4438 22.2603 57.4438 22.125C57.4438 21.9703 57.4341 21.806 57.4148 21.632C57.4148 21.4387 57.4148 21.168 57.4148 20.82C57.4148 20.762 57.4148 20.6653 57.4148 20.53C57.4341 20.3753 57.4245 19.979 57.3858 19.341C56.6318 20.5977 56.0035 21.6127 55.5008 22.386C55.0175 23.14 54.6018 23.7297 54.2538 24.155C53.9251 24.561 53.6351 24.8413 53.3838 24.996C53.1325 25.1313 52.8715 25.2087 52.6008 25.228C52.4461 25.2473 52.2915 25.2183 52.1368 25.141C51.9821 25.0637 51.8275 24.967 51.6728 24.851C51.5375 24.735 51.4021 24.619 51.2668 24.503C51.1508 24.3677 51.0541 24.242 50.9768 24.126C50.5128 23.546 49.9908 22.85 49.4108 22.038C48.8308 21.226 48.2315 20.24 47.6128 19.08C47.6128 19.0993 47.6031 19.4183 47.5838 20.037C47.5838 20.6557 47.5838 21.429 47.5838 22.357C47.5838 23.2657 47.5741 24.2517 47.5548 25.315C47.5548 26.359 47.5451 27.3353 47.5258 28.244C47.5258 29.1527 47.5161 29.9163 47.4968 30.535C47.4775 31.1343 47.4581 31.434 47.4388 31.434C47.4388 31.7627 47.3615 32.072 47.2068 32.362C47.0521 32.6327 46.8395 32.855 46.5688 33.029C46.3175 33.203 46.0178 33.2997 45.6698 33.319C45.3218 33.3383 44.9448 33.2417 44.5388 33.029C44.2875 32.8743 44.0941 32.652 43.9588 32.362C43.8428 32.072 43.7655 31.8013 43.7268 31.55C43.7075 31.2793 43.6881 31.0183 43.6688 30.767C43.6688 30.5157 43.6688 30.2547 43.6688 29.984L43.6978 27.722L43.7268 23.256V19.37C43.7268 17.688 43.7848 16.035 43.9008 14.411C43.9008 14.1983 43.9201 14.005 43.9588 13.831C44.0168 13.6377 44.0845 13.454 44.1618 13.28C44.3165 12.9707 44.5195 12.7387 44.7708 12.584C45.0608 12.41 45.3701 12.323 45.6988 12.323C45.8341 12.323 45.9598 12.3327 46.0758 12.352C46.2111 12.352 46.3368 12.3617 46.4528 12.381C46.8395 12.4583 47.1681 12.6903 47.4388 13.077C47.7288 13.4443 47.9995 13.7633 48.2508 14.034C48.4055 14.208 48.5698 14.4207 48.7438 14.672C48.9178 14.9233 49.0918 15.1843 49.2658 15.455C49.4398 15.7257 49.6041 15.9867 49.7588 16.238C49.9135 16.4893 50.0488 16.7117 50.1648 16.905C50.6675 17.717 51.1121 18.4613 51.4988 19.138C51.9048 19.8147 52.2818 20.3947 52.6298 20.878C52.6878 20.82 52.7555 20.7427 52.8328 20.646C52.9101 20.53 52.9875 20.414 53.0648 20.298C53.1615 20.1627 53.2388 20.037 53.2968 19.921C53.3741 19.805 53.4321 19.7083 53.4708 19.631C53.6641 19.3217 53.8575 19.022 54.0508 18.732C54.2441 18.4227 54.4471 18.1037 54.6598 17.775C54.8918 17.427 55.1238 17.05 55.3558 16.644C55.6071 16.238 55.8971 15.774 56.2258 15.252C56.3611 15.02 56.5351 14.7397 56.7478 14.411C56.9605 14.0823 57.2021 13.7633 57.4728 13.454C57.7435 13.1447 58.0238 12.8837 58.3138 12.671C58.6231 12.439 58.9325 12.323 59.2418 12.323C59.3965 12.323 59.5318 12.3327 59.6478 12.352C59.7638 12.352 59.8798 12.3617 59.9958 12.381C60.2278 12.4003 60.4501 12.5067 60.6628 12.7C60.8175 12.8547 60.9335 13.019 61.0108 13.193C61.0881 13.4443 61.1365 13.657 61.1558 13.831C61.1751 13.9663 61.1848 14.092 61.1848 14.208C61.2041 14.324 61.2138 14.44 61.2138 14.556C61.2138 15.6387 61.2235 16.7117 61.2428 17.775C61.2621 18.8383 61.2718 19.9113 61.2718 20.994C61.2718 22.3087 61.2718 23.662 61.2718 25.054C61.2911 26.446 61.3008 27.7993 61.3008 29.114C61.3008 29.3847 61.3105 29.6747 61.3298 29.984C61.3491 30.2933 61.3491 30.6027 61.3298 30.912ZM68.8243 13.164C70.1196 12.6807 71.2893 12.468 72.3333 12.526C73.3966 12.584 74.3439 12.8547 75.1753 13.338C76.0066 13.802 76.7123 14.4303 77.2923 15.223C77.8916 16.0157 78.3749 16.905 78.7423 17.891C79.0323 18.6257 79.2546 19.399 79.4093 20.211C79.5639 21.023 79.6509 21.835 79.6703 22.647C79.7089 23.4397 79.6799 24.2227 79.5832 24.996C79.5059 25.7693 79.3706 26.4847 79.1773 27.142C79.0613 27.5867 78.9259 27.9927 78.7713 28.36C78.6166 28.7273 78.4329 29.0947 78.2203 29.462C77.7369 30.2933 77.1086 30.97 76.3353 31.492C75.5813 32.014 74.7499 32.3813 73.8413 32.594C73.2226 32.7487 72.5846 32.826 71.9273 32.826C71.2699 32.8067 70.6223 32.7197 69.9842 32.565C69.3463 32.391 68.7276 32.1493 68.1283 31.84C67.5483 31.5113 67.0166 31.1053 66.5333 30.622C65.9339 30.042 65.4409 29.375 65.0543 28.621C64.6676 27.8477 64.3679 27.0453 64.1553 26.214C63.9426 25.3633 63.8073 24.5127 63.7493 23.662C63.6913 22.8113 63.6913 21.9993 63.7493 21.226C63.8073 20.5107 63.9426 19.747 64.1553 18.935C64.3873 18.123 64.7159 17.34 65.1413 16.586C65.5666 15.832 66.0789 15.1553 66.6783 14.556C67.2969 13.9373 68.0123 13.4733 68.8243 13.164ZM75.6103 25.576C75.8423 24.6673 75.9389 23.6427 75.9003 22.502C75.8616 21.3613 75.6779 20.2883 75.3493 19.283C75.1366 18.6643 74.8659 18.123 74.5373 17.659C74.2279 17.1757 73.8509 16.8083 73.4063 16.557C72.9809 16.3057 72.4783 16.18 71.8983 16.18C71.3183 16.18 70.6706 16.354 69.9553 16.702C69.5299 16.9147 69.1626 17.2047 68.8533 17.572C68.5633 17.9393 68.3216 18.355 68.1283 18.819C67.9543 19.283 67.8093 19.7663 67.6933 20.269C67.5966 20.7717 67.5386 21.255 67.5193 21.719C67.4806 22.2217 67.4709 22.7533 67.4903 23.314C67.5096 23.8553 67.5676 24.4063 67.6643 24.967C67.7803 25.5083 67.9349 26.0303 68.1283 26.533C68.3216 27.0163 68.5826 27.4513 68.9113 27.838C69.4139 28.418 69.9939 28.824 70.6513 29.056C71.3279 29.2687 71.9949 29.2977 72.6523 29.143C73.7156 28.911 74.5276 28.2053 75.0883 27.026C75.3203 26.6007 75.4943 26.1173 75.6103 25.576ZM97.0068 31.724C97.0261 31.9173 97.0068 32.101 96.9488 32.275C96.9101 32.391 96.8521 32.4877 96.7748 32.565C96.7168 32.6423 96.6395 32.7197 96.5428 32.797C96.3688 32.913 96.1561 33.0193 95.9048 33.116C95.7501 33.1547 95.5955 33.1837 95.4408 33.203C95.3055 33.2417 95.1605 33.2417 95.0058 33.203C94.6965 33.1837 94.4258 33.0677 94.1938 32.855C93.8651 32.5843 93.5945 32.2847 93.3818 31.956C93.2851 31.8013 93.1788 31.6273 93.0628 31.434C92.9468 31.2407 92.8405 31.0377 92.7438 30.825L89.5248 24.706C89.3701 24.706 89.2155 24.7157 89.0608 24.735C88.9061 24.735 88.7515 24.7447 88.5968 24.764C88.1908 24.8027 87.8041 24.8123 87.4368 24.793C87.0888 24.7737 86.7215 24.7737 86.3348 24.793H85.7838V30.042C85.7838 30.1967 85.7741 30.3417 85.7548 30.477C85.7548 30.6123 85.7548 30.7573 85.7548 30.912C85.7548 31.0087 85.7451 31.1343 85.7258 31.289C85.7258 31.4437 85.7161 31.5887 85.6968 31.724C85.6581 31.9367 85.5711 32.159 85.4358 32.391C85.3005 32.6037 85.1168 32.7873 84.8848 32.942C84.4788 33.1933 83.9858 33.261 83.4058 33.145C83.1545 33.087 82.9128 32.9903 82.6808 32.855C82.6035 32.797 82.5358 32.7293 82.4778 32.652C82.4198 32.5553 82.3715 32.4587 82.3328 32.362C82.2941 32.2653 82.2555 32.1687 82.2168 32.072C82.1975 31.956 82.1685 31.8497 82.1298 31.753C82.0718 31.5597 82.0428 31.376 82.0428 31.202V14.73C82.0428 14.614 82.0428 14.498 82.0428 14.382C82.0621 14.2467 82.0815 14.1307 82.1008 14.034C82.1201 13.8213 82.1878 13.6087 82.3038 13.396C82.3618 13.164 82.4585 12.9997 82.5938 12.903C82.7098 12.787 82.8838 12.6903 83.1158 12.613C83.3671 12.5163 83.7248 12.4777 84.1888 12.497C85.0588 12.5163 85.9191 12.526 86.7698 12.526C87.6205 12.526 88.4711 12.5453 89.3218 12.584C89.8825 12.6227 90.4721 12.6903 91.0908 12.787C91.7288 12.8643 92.3185 13.0093 92.8598 13.222C93.2078 13.3573 93.5268 13.4927 93.8168 13.628C94.1841 13.8407 94.4741 14.0437 94.6868 14.237C95.3635 14.8557 95.8758 15.6 96.2238 16.47C96.5718 17.34 96.7458 18.2197 96.7458 19.109C96.7458 20.153 96.4945 21.11 95.9918 21.98C95.5085 22.85 94.7255 23.4977 93.6428 23.923C93.6041 23.9617 93.5461 23.9907 93.4688 24.01C93.4108 24.01 93.3625 24.0197 93.3238 24.039L95.9918 29.404L96.2528 29.868C96.2915 29.9453 96.3398 30.0323 96.3978 30.129C96.4558 30.2257 96.5041 30.3223 96.5428 30.419C96.6008 30.5157 96.6491 30.622 96.6878 30.738C96.7458 30.854 96.8038 30.9603 96.8618 31.057C96.9198 31.3277 96.9681 31.55 97.0068 31.724ZM89.7568 21.4C90.1048 21.4 90.4335 21.342 90.7428 21.226C91.0715 21.0907 91.3615 20.9167 91.6128 20.704C91.8835 20.4913 92.1058 20.2497 92.2798 19.979C92.4538 19.689 92.5505 19.3797 92.5698 19.051C92.6471 18.0843 92.3958 17.369 91.8158 16.905C91.2358 16.4217 90.4721 16.1607 89.5248 16.122C88.9641 16.0833 88.3455 16.064 87.6688 16.064C87.0115 16.064 86.3831 16.064 85.7838 16.064C85.8031 16.8567 85.8031 17.6687 85.7838 18.5C85.7838 19.312 85.7838 20.2787 85.7838 21.4H89.7568ZM103.32 15.948L103.262 20.501H104.422C105.214 20.4817 105.92 20.472 106.539 20.472C107.157 20.472 107.844 20.4817 108.598 20.501H108.743C108.975 20.501 109.197 20.5107 109.41 20.53C109.642 20.53 109.864 20.53 110.077 20.53C110.309 20.5493 110.531 20.588 110.744 20.646C110.956 20.6847 111.169 20.733 111.382 20.791C111.71 20.907 111.981 21.081 112.194 21.313C112.387 21.5643 112.484 21.8447 112.484 22.154C112.484 22.2507 112.484 22.3667 112.484 22.502C112.484 22.618 112.464 22.7243 112.426 22.821C112.387 23.0337 112.261 23.227 112.049 23.401C111.952 23.5363 111.768 23.633 111.498 23.691C111.246 23.7683 110.995 23.8167 110.744 23.836C110.473 23.894 110.202 23.923 109.932 23.923H108.569L103.204 23.952L103.146 29.636L108.917 29.694H110.28C110.434 29.694 110.579 29.694 110.715 29.694C110.85 29.694 110.976 29.7037 111.092 29.723C111.246 29.7617 111.382 29.7907 111.498 29.81C111.633 29.81 111.759 29.8293 111.875 29.868C112.107 29.9453 112.3 30.0517 112.455 30.187C112.648 30.3803 112.774 30.5833 112.832 30.796C112.851 30.8927 112.861 30.999 112.861 31.115C112.88 31.2117 112.88 31.318 112.861 31.434C112.861 31.7433 112.764 32.0237 112.571 32.275C112.339 32.5457 112.068 32.7197 111.759 32.797C111.353 32.971 110.908 33.058 110.425 33.058C110.212 33.0773 109.99 33.087 109.758 33.087C109.526 33.087 109.303 33.0967 109.091 33.116H108.917C107.409 33.1547 105.843 33.1547 104.219 33.116C103.832 33.116 103.523 33.1063 103.291 33.087C103.059 33.087 102.846 33.087 102.653 33.087C102.479 33.087 102.295 33.087 102.102 33.087C101.908 33.087 101.657 33.087 101.348 33.087C100.903 33.1257 100.536 33.0483 100.246 32.855C100.033 32.7197 99.8685 32.536 99.7525 32.304C99.6945 32.246 99.6655 32.188 99.6655 32.13C99.6462 32.0913 99.6269 32.0623 99.6075 32.043C99.5882 32.0237 99.5689 31.9947 99.5495 31.956C99.5109 31.8593 99.4819 31.7627 99.4625 31.666C99.4432 31.55 99.4335 31.4437 99.4335 31.347C99.4142 31.2503 99.3949 31.1537 99.3755 31.057C99.3755 30.9603 99.3659 30.8637 99.3465 30.767V30.303C99.3465 30.2257 99.3465 30.1483 99.3465 30.071C99.3659 29.9937 99.3755 29.9163 99.3755 29.839V27.577L99.4335 23.401V19.544C99.4335 18.848 99.4335 18.2293 99.4335 17.688C99.4529 17.1467 99.4722 16.557 99.4915 15.919V15.774C99.5109 15.5613 99.5205 15.368 99.5205 15.194C99.5399 15.0007 99.5495 14.8073 99.5495 14.614C99.5689 14.2273 99.6752 13.8503 99.8685 13.483C99.9459 13.3283 100.023 13.193 100.101 13.077C100.197 12.961 100.323 12.8643 100.478 12.787C100.768 12.613 101.067 12.526 101.377 12.526C101.531 12.526 101.647 12.5357 101.725 12.555V12.526C102.073 12.526 102.353 12.526 102.566 12.526C102.778 12.526 102.981 12.526 103.175 12.526C103.387 12.526 103.61 12.526 103.842 12.526C104.074 12.5067 104.393 12.497 104.799 12.497C105.572 12.4777 106.307 12.468 107.003 12.468C107.699 12.468 108.414 12.4777 109.149 12.497H109.265C109.477 12.5163 109.7 12.526 109.932 12.526C110.164 12.526 110.386 12.5357 110.599 12.555C110.811 12.555 111.024 12.584 111.237 12.642C111.449 12.6807 111.662 12.7387 111.875 12.816C112.203 12.9127 112.474 13.077 112.687 13.309C112.861 13.5797 112.948 13.8503 112.948 14.121C112.948 14.237 112.948 14.353 112.948 14.469C112.948 14.5657 112.928 14.6623 112.89 14.759C112.87 14.9523 112.754 15.1553 112.542 15.368C112.464 15.4067 112.377 15.455 112.281 15.513C112.203 15.571 112.107 15.6193 111.991 15.658C111.875 15.6967 111.749 15.7257 111.614 15.745C111.498 15.745 111.382 15.7547 111.266 15.774C111.111 15.8127 110.966 15.832 110.831 15.832C110.715 15.832 110.579 15.832 110.425 15.832H109.12L103.32 15.861V15.948Z" fill="white"/>
<path d="M167.828 34.6385C179.614 34.6385 189.202 29.7415 189.202 23.7208C189.202 17.7001 179.614 12.8008 167.828 12.8008C156.044 12.8008 146.456 17.6994 146.456 23.7208C146.456 29.7415 156.042 34.6385 167.828 34.6385Z" fill="white"/>
<path d="M167.828 37.5695C182.802 37.5695 194.936 31.3689 194.936 23.7211C194.936 16.0715 182.801 9.87207 167.828 9.87207C152.857 9.87207 140.721 16.0715 140.721 23.7211C140.721 31.3687 152.857 37.5695 167.828 37.5695ZM167.828 11.9938C180.485 11.9938 190.784 17.2557 190.784 23.7211C190.784 30.1868 180.485 35.4476 167.828 35.4476C155.172 35.4476 144.874 30.187 144.874 23.7211C144.874 17.2557 155.172 11.9938 167.828 11.9938Z" fill="white"/>
<path d="M210 38.8578L208.418 7.77529C208.418 7.10602 207.356 6.56323 206.046 6.56323C205.695 6.56323 205.366 6.60426 205.068 6.6748V6.66331C205.068 6.66331 205.006 6.68351 204.918 6.71427C204.691 6.7783 204.487 6.85708 204.311 6.95342C202.575 7.68144 197.039 10.6487 196.576 14.6596C195.873 20.7778 201.69 23.2555 203.672 25.5248L202.09 38.8572C202.09 39.5263 204.734 40.0693 206.044 40.0693C207.356 40.0699 210 39.5271 210 38.8578Z" fill="white"/>
<path d="M122.141 19.9223L126.236 20.9671C126.702 21.0866 127.217 21.1738 127.754 21.2386L126.172 39.4206C126.172 39.9824 128.818 40.4369 130.127 40.4369C131.436 40.4369 134.081 39.9824 134.081 39.4206L132.499 21.1455C133.056 21.056 133.593 20.9468 134.062 20.7999L137.096 19.8562C139.285 19.1741 140.934 17.6737 140.934 16.3638V8.21719C140.934 7.54791 139.871 7.00513 138.562 7.00513C137.253 7.00513 136.189 7.54791 136.189 8.21719V15.5556H134.871V8.21719C134.871 7.54791 133.809 7.00513 132.499 7.00513C131.19 7.00513 130.126 7.54791 130.126 8.21719V15.5556H128.804V8.21719C128.804 7.54791 127.741 7.00513 126.432 7.00513C125.122 7.00513 124.059 7.54791 124.059 8.21719V15.5556H122.745V8.47902C122.745 7.8099 121.683 7.26696 120.373 7.26696C119.064 7.26696 118 7.8099 118 8.47902V16.4991C118 17.8472 119.781 19.3195 122.141 19.9223Z" fill="white"/>
</svg>
